<?xml version="1.0" standalone="no"?>
<!DOCTYPE svg PUBLIC "-//W3C//DTD SVG 20010904//EN"
 "http://www.w3.org/TR/2001/REC-SVG-20010904/DTD/svg10.dtd">
<svg version="1.0" xmlns="http://www.w3.org/2000/svg"
 width="209.000000pt" height="209.000000pt" viewBox="0 0 209.000000 209.000000"
 preserveAspectRatio="xMidYMid meet">
<metadata>
Created by potrace 1.11, written by Peter Selinger 2001-2013
</metadata>
<g transform="translate(0.000000,209.000000) scale(0.100000,-0.100000)"
fill="#000000" stroke="none">
<path d="M915 1829 c-174 -38 -305 -154 -355 -318 -24 -74 -25 -178 -5 -248 7
-24 10 -43 7 -44 -47 -5 -265 -74 -350 -111 l-44 -18 7 -50 7 -50 -66 0 c-56
0 -66 -3 -67 -17 0 -10 -1 -85 -2 -168 l-2 -150 89 3 c91 4 104 0 110 -34 2
-11 20 -82 39 -159 20 -77 46 -178 58 -225 11 -47 25 -89 29 -94 5 -5 23 3 42
18 18 14 38 30 43 34 75 59 383 222 418 222 11 0 15 -11 15 -43 0 -83 -2 -79
38 -62 44 18 54 13 49 -25 -5 -35 2 -37 49 -10 53 29 143 52 208 53 l58 1 0
43 c0 24 3 43 8 44 4 0 90 2 192 3 104 1 207 8 235 15 86 21 145 84 145 156 0
25 1 25 85 25 l85 0 -2 187 -3 188 -70 0 c-74 1 -71 -2 -74 58 -1 24 -10 31
-77 62 -84 39 -287 109 -347 120 -37 7 -38 9 -31 39 12 53 12 155 -1 210 -36
155 -170 295 -321 335 -56 15 -152 20 -199 10z"/>
</g>
</svg>
